<?xml version="1.0" standalone="no"?>
<!DOCTYPE svg PUBLIC "-//W3C//DTD SVG 20010904//EN"
 "http://www.w3.org/TR/2001/REC-SVG-20010904/DTD/svg10.dtd">
<svg version="1.0" xmlns="http://www.w3.org/2000/svg"
 width="301.000000pt" height="167.000000pt" viewBox="0 0 301.000000 167.000000"
 preserveAspectRatio="xMidYMid meet">

<g transform="translate(0.000000,167.000000) scale(0.100000,-0.100000)"
fill="#000000" stroke="none">
<path d="M1310 1225 c-212 -55 -640 -315 -640 -390 0 -46 206 -196 405 -295
323 -162 537 -162 860 0 199 99 405 249 405 295 0 46 -206 196 -405 295 -242
121 -418 148 -625 95z m305 -106 c204 -76 260 -348 104 -500 -194 -188 -519
-53 -519 216 0 213 214 359 415 284z m-483 -116 c-24 -52 -27 -69 -27 -168 0
-99 3 -116 27 -168 l28 -58 -86 45 c-94 50 -264 166 -264 180 0 11 12 20 130
100 73 50 202 124 217 126 1 0 -10 -26 -25 -57z m979 -95 c49 -35 89 -67 89
-73 0 -15 -166 -129 -264 -181 l-86 -45 28 58 c24 52 27 69 27 168 0 99 -3
116 -27 168 l-28 58 86 -45 c47 -25 126 -74 175 -108z"/>
<path d="M1435 991 c-36 -15 -83 -72 -94 -114 -14 -56 2 -116 42 -157 39 -40
65 -50 125 -50 110 0 188 101 161 207 -12 44 -58 99 -97 114 -29 11 -110 11
-137 0z m95 -66 c0 -16 -8 -24 -32 -31 -24 -7 -38 -20 -51 -47 -11 -24 -24
-37 -36 -37 -61 0 -6 120 63 139 41 10 56 4 56 -24z"/>
</g>
</svg>
