<?xml version="1.0" standalone="no"?>
<!DOCTYPE svg PUBLIC "-//W3C//DTD SVG 20010904//EN"
 "http://www.w3.org/TR/2001/REC-SVG-20010904/DTD/svg10.dtd">
<svg version="1.0" xmlns="http://www.w3.org/2000/svg"
 width="301.000000pt" height="167.000000pt" viewBox="0 0 301.000000 167.000000"
 preserveAspectRatio="xMidYMid meet">

<g transform="translate(0.000000,167.000000) scale(0.100000,-0.100000)"
fill="#000000" stroke="none">
<path d="M2022 1263 c-151 -95 -154 -96 -185 -84 -177 73 -357 89 -522 47
-128 -33 -328 -132 -467 -230 -124 -88 -178 -137 -178 -161 0 -24 52 -72 163
-150 51 -35 100 -70 110 -77 17 -12 1 -25 -165 -129 -169 -107 -183 -118 -183
-145 0 -57 35 -44 249 91 l200 126 89 -41 c195 -91 377 -112 561 -66 160 41
350 139 527 273 108 81 128 107 110 141 -15 28 -194 161 -296 219 l-81 47 135
86 c124 79 136 89 136 116 0 54 -36 43 -203 -63z m-434 -133 c19 -5 54 -21 79
-36 l45 -26 -59 -38 c-58 -36 -63 -37 -129 -33 -61 4 -73 2 -104 -19 -44 -30
-80 -83 -80 -118 0 -23 -11 -34 -65 -68 l-65 -41 -6 25 c-19 76 13 193 71 262
70 83 206 123 313 92z m-428 -79 c0 -6 -4 -12 -9 -16 -5 -3 -19 -35 -31 -71
-18 -55 -21 -81 -17 -148 3 -44 8 -91 12 -103 6 -17 1 -25 -25 -38 -32 -16
-33 -16 -84 15 -28 18 -86 57 -129 88 l-78 56 23 18 c77 62 309 208 331 208 4
0 7 -4 7 -9z m768 -28 c65 -36 213 -133 260 -171 l23 -18 -93 -67 c-103 -73
-256 -162 -264 -154 -3 3 1 16 9 29 26 40 47 129 47 198 0 64 -28 172 -50 194
-11 11 -13 26 -4 26 3 0 36 -17 72 -37z m-142 -65 c14 -31 19 -65 19 -128 0
-75 -3 -91 -29 -138 -33 -60 -76 -101 -139 -134 -35 -19 -58 -23 -132 -23 -81
0 -95 3 -144 30 -29 16 -69 47 -87 69 l-34 40 57 37 58 37 30 -28 c43 -40 68
-50 123 -50 57 0 104 27 140 80 19 29 23 44 19 90 -2 30 -7 64 -11 75 -6 16 3
26 46 52 29 18 56 32 59 33 3 0 15 -19 25 -42z m-273 -5 c4 -3 -20 -24 -54
-45 -34 -22 -63 -37 -65 -35 -9 9 41 60 70 73 36 16 40 16 49 7z"/>
</g>
</svg>
